<mxfile host="65bd71144e">
    <diagram name="BoomWijk" id="nL8aa56l0DugsrmY4gjJ">
        <mxGraphModel dx="1197" dy="501" grid="0" gridSize="10" guides="1" tooltips="1" connect="1" arrows="1" fold="1" page="1" pageScale="1" pageWidth="827" pageHeight="1169" background="#ffffff" math="0" shadow="0">
            <root>
                <mxCell id="0"/>
                <mxCell id="1" parent="0"/>
                <mxCell id="31" value="&lt;font&gt;NIEUW&lt;/font&gt;" style="rounded=0;whiteSpace=wrap;html=1;fillColor=none;strokeColor=#1E767B;fontColor=#000000;fontSize=18;horizontal=0;align=center;verticalAlign=top;strokeWidth=5;" vertex="1" parent="1">
                    <mxGeometry x="10" y="730" width="650" height="200" as="geometry"/>
                </mxCell>
                <mxCell id="32" value="&lt;font&gt;OUD&lt;/font&gt;" style="rounded=0;whiteSpace=wrap;html=1;fillColor=none;strokeColor=#BFA763;fontColor=#000000;strokeWidth=5;align=center;verticalAlign=top;horizontal=0;fontSize=18;" vertex="1" parent="1">
                    <mxGeometry x="10" y="600" width="650" height="120" as="geometry"/>
                </mxCell>
                <mxCell id="4" value="&lt;font&gt;NIEUW&lt;/font&gt;" style="rounded=0;whiteSpace=wrap;html=1;fillColor=none;strokeColor=#1E767B;fontColor=#000000;fontSize=18;horizontal=0;align=center;verticalAlign=top;strokeWidth=5;" vertex="1" parent="1">
                    <mxGeometry x="10" y="380" width="580" height="150" as="geometry"/>
                </mxCell>
                <mxCell id="5" value="&lt;font&gt;OUD&lt;/font&gt;" style="rounded=0;whiteSpace=wrap;html=1;fillColor=none;strokeColor=#BFA763;fontColor=#000000;strokeWidth=5;align=center;verticalAlign=top;horizontal=0;fontSize=18;" vertex="1" parent="1">
                    <mxGeometry x="10" y="270" width="580" height="100" as="geometry"/>
                </mxCell>
                <mxCell id="3" value="&lt;font&gt;NIEUW&lt;/font&gt;" style="rounded=0;whiteSpace=wrap;html=1;fillColor=none;strokeColor=#1E767B;fontColor=#000000;fontSize=18;horizontal=0;align=center;verticalAlign=top;strokeWidth=5;" vertex="1" parent="1">
                    <mxGeometry x="10" y="120" width="580" height="100" as="geometry"/>
                </mxCell>
                <mxCell id="2" value="&lt;font&gt;OUD&lt;/font&gt;" style="rounded=0;whiteSpace=wrap;html=1;fillColor=none;strokeColor=#BFA763;fontColor=#000000;strokeWidth=5;align=center;verticalAlign=top;horizontal=0;fontSize=18;" vertex="1" parent="1">
                    <mxGeometry x="10" y="10" width="580" height="100" as="geometry"/>
                </mxCell>
                <mxCell id="rJaaq5ghrN7F7qI7o1DM-1" value="&lt;b&gt;Boom&lt;/b&gt;" style="swimlane;fontStyle=0;align=center;verticalAlign=top;childLayout=stackLayout;horizontal=1;startSize=30;horizontalStack=0;resizeParent=1;resizeParentMax=0;resizeLast=0;collapsible=0;marginBottom=0;html=1;whiteSpace=wrap;" parent="1" vertex="1">
                    <mxGeometry x="90" y="20" width="120" height="70" as="geometry"/>
                </mxCell>
                <mxCell id="rJaaq5ghrN7F7qI7o1DM-3" value="hoogte" style="text;html=1;strokeColor=none;fillColor=none;align=left;verticalAlign=middle;spacingLeft=4;spacingRight=4;overflow=hidden;rotatable=0;points=[[0,0.5],[1,0.5]];portConstraint=eastwest;whiteSpace=wrap;" parent="rJaaq5ghrN7F7qI7o1DM-1" vertex="1">
                    <mxGeometry y="30" width="120" height="20" as="geometry"/>
                </mxCell>
                <mxCell id="rJaaq5ghrN7F7qI7o1DM-9" value="wijknaam" style="text;html=1;strokeColor=none;fillColor=none;align=left;verticalAlign=middle;spacingLeft=4;spacingRight=4;overflow=hidden;rotatable=0;points=[[0,0.5],[1,0.5]];portConstraint=eastwest;whiteSpace=wrap;" parent="rJaaq5ghrN7F7qI7o1DM-1" vertex="1">
                    <mxGeometry y="50" width="120" height="20" as="geometry"/>
                </mxCell>
                <mxCell id="rJaaq5ghrN7F7qI7o1DM-10" value="&lt;b&gt;Boom&lt;/b&gt;" style="swimlane;fontStyle=0;align=center;verticalAlign=top;childLayout=stackLayout;horizontal=1;startSize=30;horizontalStack=0;resizeParent=1;resizeParentMax=0;resizeLast=0;collapsible=0;marginBottom=0;html=1;whiteSpace=wrap;" parent="1" vertex="1">
                    <mxGeometry x="90" y="145" width="120" height="50" as="geometry"/>
                </mxCell>
                <mxCell id="rJaaq5ghrN7F7qI7o1DM-11" value="hoogte" style="text;html=1;strokeColor=none;fillColor=none;align=left;verticalAlign=middle;spacingLeft=4;spacingRight=4;overflow=hidden;rotatable=0;points=[[0,0.5],[1,0.5]];portConstraint=eastwest;whiteSpace=wrap;" parent="rJaaq5ghrN7F7qI7o1DM-10" vertex="1">
                    <mxGeometry y="30" width="120" height="20" as="geometry"/>
                </mxCell>
                <mxCell id="rJaaq5ghrN7F7qI7o1DM-17" value="bevat" style="edgeStyle=orthogonalEdgeStyle;rounded=0;orthogonalLoop=1;jettySize=auto;html=1;entryX=1;entryY=0.5;entryDx=0;entryDy=0;" parent="1" source="rJaaq5ghrN7F7qI7o1DM-13" target="rJaaq5ghrN7F7qI7o1DM-10" edge="1">
                    <mxGeometry relative="1" as="geometry"/>
                </mxCell>
                <mxCell id="rJaaq5ghrN7F7qI7o1DM-13" value="&lt;b&gt;Wijkgrens&lt;/b&gt;" style="swimlane;fontStyle=0;align=center;verticalAlign=top;childLayout=stackLayout;horizontal=1;startSize=30;horizontalStack=0;resizeParent=1;resizeParentMax=0;resizeLast=0;collapsible=0;marginBottom=0;html=1;whiteSpace=wrap;" parent="1" vertex="1">
                    <mxGeometry x="330" y="145" width="120" height="50" as="geometry"/>
                </mxCell>
                <mxCell id="rJaaq5ghrN7F7qI7o1DM-15" value="naam" style="text;html=1;strokeColor=none;fillColor=none;align=left;verticalAlign=middle;spacingLeft=4;spacingRight=4;overflow=hidden;rotatable=0;points=[[0,0.5],[1,0.5]];portConstraint=eastwest;whiteSpace=wrap;" parent="rJaaq5ghrN7F7qI7o1DM-13" vertex="1">
                    <mxGeometry y="30" width="120" height="20" as="geometry"/>
                </mxCell>
                <mxCell id="rJaaq5ghrN7F7qI7o1DM-18" value="&lt;b&gt;Boom&lt;/b&gt;" style="swimlane;fontStyle=0;align=center;verticalAlign=top;childLayout=stackLayout;horizontal=1;startSize=30;horizontalStack=0;resizeParent=1;resizeParentMax=0;resizeLast=0;collapsible=0;marginBottom=0;html=1;whiteSpace=wrap;" parent="1" vertex="1">
                    <mxGeometry x="90" y="295" width="120" height="50" as="geometry"/>
                </mxCell>
                <mxCell id="rJaaq5ghrN7F7qI7o1DM-19" value="memo" style="text;html=1;strokeColor=none;fillColor=none;align=left;verticalAlign=middle;spacingLeft=4;spacingRight=4;overflow=hidden;rotatable=0;points=[[0,0.5],[1,0.5]];portConstraint=eastwest;whiteSpace=wrap;" parent="rJaaq5ghrN7F7qI7o1DM-18" vertex="1">
                    <mxGeometry y="30" width="120" height="20" as="geometry"/>
                </mxCell>
                <mxCell id="rJaaq5ghrN7F7qI7o1DM-28" style="edgeStyle=orthogonalEdgeStyle;rounded=0;orthogonalLoop=1;jettySize=auto;html=1;entryX=0;entryY=0.5;entryDx=0;entryDy=0;" parent="1" source="rJaaq5ghrN7F7qI7o1DM-21" target="rJaaq5ghrN7F7qI7o1DM-25" edge="1">
                    <mxGeometry relative="1" as="geometry"/>
                </mxCell>
                <mxCell id="rJaaq5ghrN7F7qI7o1DM-27" value="isBeschrevenDoor" style="edgeStyle=orthogonalEdgeStyle;rounded=0;orthogonalLoop=1;jettySize=auto;html=1;entryX=0;entryY=0.5;entryDx=0;entryDy=0;" parent="1" source="rJaaq5ghrN7F7qI7o1DM-21" target="rJaaq5ghrN7F7qI7o1DM-23" edge="1">
                    <mxGeometry relative="1" as="geometry"/>
                </mxCell>
                <mxCell id="rJaaq5ghrN7F7qI7o1DM-21" value="&lt;b&gt;Boom&lt;/b&gt;" style="swimlane;fontStyle=0;align=center;verticalAlign=top;childLayout=stackLayout;horizontal=1;startSize=30;horizontalStack=0;resizeParent=1;resizeParentMax=0;resizeLast=0;collapsible=0;marginBottom=0;html=1;whiteSpace=wrap;" parent="1" vertex="1">
                    <mxGeometry x="90" y="400" width="120" height="50" as="geometry"/>
                </mxCell>
                <mxCell id="rJaaq5ghrN7F7qI7o1DM-23" value="&lt;b&gt;Memo&lt;/b&gt;" style="swimlane;fontStyle=0;align=center;verticalAlign=top;childLayout=stackLayout;horizontal=1;startSize=30;horizontalStack=0;resizeParent=1;resizeParentMax=0;resizeLast=0;collapsible=0;marginBottom=0;html=1;whiteSpace=wrap;" parent="1" vertex="1">
                    <mxGeometry x="330" y="400" width="120" height="50" as="geometry"/>
                </mxCell>
                <mxCell id="rJaaq5ghrN7F7qI7o1DM-24" value="omschrijving" style="text;html=1;strokeColor=none;fillColor=none;align=left;verticalAlign=middle;spacingLeft=4;spacingRight=4;overflow=hidden;rotatable=0;points=[[0,0.5],[1,0.5]];portConstraint=eastwest;whiteSpace=wrap;" parent="rJaaq5ghrN7F7qI7o1DM-23" vertex="1">
                    <mxGeometry y="30" width="120" height="20" as="geometry"/>
                </mxCell>
                <mxCell id="rJaaq5ghrN7F7qI7o1DM-25" value="&lt;b&gt;Memo&lt;/b&gt;" style="swimlane;fontStyle=0;align=center;verticalAlign=top;childLayout=stackLayout;horizontal=1;startSize=30;horizontalStack=0;resizeParent=1;resizeParentMax=0;resizeLast=0;collapsible=0;marginBottom=0;html=1;whiteSpace=wrap;" parent="1" vertex="1">
                    <mxGeometry x="330" y="460" width="120" height="50" as="geometry"/>
                </mxCell>
                <mxCell id="rJaaq5ghrN7F7qI7o1DM-26" value="omschrijving" style="text;html=1;strokeColor=none;fillColor=none;align=left;verticalAlign=middle;spacingLeft=4;spacingRight=4;overflow=hidden;rotatable=0;points=[[0,0.5],[1,0.5]];portConstraint=eastwest;whiteSpace=wrap;" parent="rJaaq5ghrN7F7qI7o1DM-25" vertex="1">
                    <mxGeometry y="30" width="120" height="20" as="geometry"/>
                </mxCell>
                <mxCell id="7" value="&lt;b&gt;Informatiepaneel&lt;/b&gt;" style="swimlane;fontStyle=0;align=center;verticalAlign=top;childLayout=stackLayout;horizontal=1;startSize=30;horizontalStack=0;resizeParent=1;resizeParentMax=0;resizeLast=0;collapsible=0;marginBottom=0;html=1;whiteSpace=wrap;" vertex="1" parent="1">
                    <mxGeometry x="40" y="610" width="200" height="70" as="geometry"/>
                </mxCell>
                <mxCell id="8" value="type = Matrixbord" style="text;html=1;strokeColor=none;fillColor=none;align=left;verticalAlign=middle;spacingLeft=4;spacingRight=4;overflow=hidden;rotatable=0;points=[[0,0.5],[1,0.5]];portConstraint=eastwest;whiteSpace=wrap;" vertex="1" parent="7">
                    <mxGeometry y="30" width="200" height="20" as="geometry"/>
                </mxCell>
                <mxCell id="11" value="typeGedetailleerd = ES01" style="text;html=1;strokeColor=none;fillColor=none;align=left;verticalAlign=middle;spacingLeft=4;spacingRight=4;overflow=hidden;rotatable=0;points=[[0,0.5],[1,0.5]];portConstraint=eastwest;whiteSpace=wrap;" vertex="1" parent="7">
                    <mxGeometry y="50" width="200" height="20" as="geometry"/>
                </mxCell>
                <mxCell id="9" value="&lt;b&gt;Informatiepaneel&lt;/b&gt;" style="swimlane;fontStyle=0;align=center;verticalAlign=top;childLayout=stackLayout;horizontal=1;startSize=30;horizontalStack=0;resizeParent=1;resizeParentMax=0;resizeLast=0;collapsible=0;marginBottom=0;html=1;whiteSpace=wrap;" vertex="1" parent="1">
                    <mxGeometry x="40" y="740" width="200" height="70" as="geometry"/>
                </mxCell>
                <mxCell id="10" value="verschijningsvorm = Matrixbord" style="text;html=1;strokeColor=none;fillColor=none;align=left;verticalAlign=middle;spacingLeft=4;spacingRight=4;overflow=hidden;rotatable=0;points=[[0,0.5],[1,0.5]];portConstraint=eastwest;whiteSpace=wrap;" vertex="1" parent="9">
                    <mxGeometry y="30" width="200" height="20" as="geometry"/>
                </mxCell>
                <mxCell id="12" value="bordcode = ES01&amp;nbsp;" style="text;html=1;strokeColor=none;fillColor=none;align=left;verticalAlign=middle;spacingLeft=4;spacingRight=4;overflow=hidden;rotatable=0;points=[[0,0.5],[1,0.5]];portConstraint=eastwest;whiteSpace=wrap;" vertex="1" parent="9">
                    <mxGeometry y="50" width="200" height="20" as="geometry"/>
                </mxCell>
                <mxCell id="13" value="&lt;b&gt;HWA perceelaansluitleiding&lt;/b&gt;" style="swimlane;fontStyle=0;align=center;verticalAlign=top;childLayout=stackLayout;horizontal=1;startSize=30;horizontalStack=0;resizeParent=1;resizeParentMax=0;resizeLast=0;collapsible=0;marginBottom=0;html=1;whiteSpace=wrap;" vertex="1" parent="1">
                    <mxGeometry x="460" y="865" width="160" height="50" as="geometry"/>
                </mxCell>
                <mxCell id="20" value="wanddikte = 110" style="text;html=1;strokeColor=none;fillColor=none;align=left;verticalAlign=middle;spacingLeft=4;spacingRight=4;overflow=hidden;rotatable=0;points=[[0,0.5],[1,0.5]];portConstraint=eastwest;whiteSpace=wrap;" vertex="1" parent="13">
                    <mxGeometry y="30" width="160" height="20" as="geometry"/>
                </mxCell>
                <mxCell id="16" value="&lt;b&gt;Aansluitleiding&lt;/b&gt;" style="swimlane;fontStyle=0;align=center;verticalAlign=top;childLayout=stackLayout;horizontal=1;startSize=30;horizontalStack=0;resizeParent=1;resizeParentMax=0;resizeLast=0;collapsible=0;marginBottom=0;html=1;whiteSpace=wrap;" vertex="1" parent="1">
                    <mxGeometry x="360" y="610" width="287" height="90" as="geometry"/>
                </mxCell>
                <mxCell id="17" value="type = Perceelaansluitleiding" style="text;html=1;strokeColor=none;fillColor=none;align=left;verticalAlign=middle;spacingLeft=4;spacingRight=4;overflow=hidden;rotatable=0;points=[[0,0.5],[1,0.5]];portConstraint=eastwest;whiteSpace=wrap;" vertex="1" parent="16">
                    <mxGeometry y="30" width="287" height="20" as="geometry"/>
                </mxCell>
                <mxCell id="18" value="typeGedetailleerd = HWA perceelaansluitleiding" style="text;html=1;strokeColor=none;fillColor=none;align=left;verticalAlign=middle;spacingLeft=4;spacingRight=4;overflow=hidden;rotatable=0;points=[[0,0.5],[1,0.5]];portConstraint=eastwest;whiteSpace=wrap;" vertex="1" parent="16">
                    <mxGeometry y="50" width="287" height="20" as="geometry"/>
                </mxCell>
                <mxCell id="19" value="wanddikte = 110" style="text;html=1;strokeColor=none;fillColor=none;align=left;verticalAlign=middle;spacingLeft=4;spacingRight=4;overflow=hidden;rotatable=0;points=[[0,0.5],[1,0.5]];portConstraint=eastwest;whiteSpace=wrap;" vertex="1" parent="16">
                    <mxGeometry y="70" width="287" height="20" as="geometry"/>
                </mxCell>
                <mxCell id="21" value="&lt;b&gt;Perceelaansluiting&lt;/b&gt;" style="swimlane;fontStyle=2;align=center;verticalAlign=top;childLayout=stackLayout;horizontal=1;startSize=30;horizontalStack=0;resizeParent=1;resizeParentMax=0;resizeLast=0;collapsible=0;marginBottom=0;html=1;whiteSpace=wrap;" vertex="1" parent="1">
                    <mxGeometry x="410" y="805" width="120" height="50" as="geometry"/>
                </mxCell>
                <mxCell id="25" value="&lt;b&gt;Aansluitleiding&lt;/b&gt;" style="swimlane;fontStyle=2;align=center;verticalAlign=top;childLayout=stackLayout;horizontal=1;startSize=30;horizontalStack=0;resizeParent=1;resizeParentMax=0;resizeLast=0;collapsible=0;marginBottom=0;html=1;whiteSpace=wrap;" vertex="1" parent="1">
                    <mxGeometry x="360" y="745" width="120" height="50" as="geometry"/>
                </mxCell>
                <mxCell id="29" value="" style="endArrow=block;endSize=16;endFill=0;html=1;entryX=0.25;entryY=1;entryDx=0;entryDy=0;exitX=0;exitY=0.5;exitDx=0;exitDy=0;" edge="1" parent="1" source="21" target="25">
                    <mxGeometry width="160" relative="1" as="geometry">
                        <mxPoint x="230" y="755" as="sourcePoint"/>
                        <mxPoint x="390" y="755" as="targetPoint"/>
                        <Array as="points">
                            <mxPoint x="390" y="830"/>
                        </Array>
                    </mxGeometry>
                </mxCell>
                <mxCell id="30" value="" style="endArrow=block;endSize=16;endFill=0;html=1;entryX=0.25;entryY=1;entryDx=0;entryDy=0;exitX=0;exitY=0.5;exitDx=0;exitDy=0;" edge="1" parent="1" source="13" target="21">
                    <mxGeometry width="160" relative="1" as="geometry">
                        <mxPoint x="440" y="840" as="sourcePoint"/>
                        <mxPoint x="400" y="805" as="targetPoint"/>
                        <Array as="points">
                            <mxPoint x="460" y="890"/>
                            <mxPoint x="440" y="890"/>
                        </Array>
                    </mxGeometry>
                </mxCell>
                <mxCell id="34" value="&lt;font&gt;NIEUW&lt;/font&gt;" style="rounded=0;whiteSpace=wrap;html=1;fillColor=none;strokeColor=#1E767B;fontColor=#000000;fontSize=18;horizontal=0;align=center;verticalAlign=top;strokeWidth=5;" vertex="1" parent="1">
                    <mxGeometry x="10" y="1090" width="650" height="180" as="geometry"/>
                </mxCell>
                <mxCell id="35" value="&lt;font&gt;OUD&lt;/font&gt;" style="rounded=0;whiteSpace=wrap;html=1;fillColor=none;strokeColor=#BFA763;fontColor=#000000;strokeWidth=5;align=center;verticalAlign=top;horizontal=0;fontSize=18;" vertex="1" parent="1">
                    <mxGeometry x="10" y="960" width="650" height="120" as="geometry"/>
                </mxCell>
                <mxCell id="42" value="&lt;b&gt;&lt;i&gt;Eigenaar&lt;/i&gt;&lt;/b&gt;" style="swimlane;fontStyle=0;align=center;verticalAlign=top;childLayout=stackLayout;horizontal=1;startSize=30;horizontalStack=0;resizeParent=1;resizeParentMax=0;resizeLast=0;collapsible=0;marginBottom=0;html=1;whiteSpace=wrap;" vertex="1" parent="1">
                    <mxGeometry x="275" y="1195.5" width="120" height="50" as="geometry"/>
                </mxCell>
                <mxCell id="44" value="&lt;b&gt;Boom&lt;/b&gt;" style="swimlane;fontStyle=0;align=center;verticalAlign=top;childLayout=stackLayout;horizontal=1;startSize=30;horizontalStack=0;resizeParent=1;resizeParentMax=0;resizeLast=0;collapsible=0;marginBottom=0;html=1;whiteSpace=wrap;" vertex="1" parent="1">
                    <mxGeometry x="70" y="980" width="287" height="70" as="geometry"/>
                </mxCell>
                <mxCell id="45" value="beheerder = Gemeente X" style="text;html=1;strokeColor=none;fillColor=none;align=left;verticalAlign=middle;spacingLeft=4;spacingRight=4;overflow=hidden;rotatable=0;points=[[0,0.5],[1,0.5]];portConstraint=eastwest;whiteSpace=wrap;" vertex="1" parent="44">
                    <mxGeometry y="30" width="287" height="20" as="geometry"/>
                </mxCell>
                <mxCell id="46" value="eigenaar = Gemeente X" style="text;html=1;strokeColor=none;fillColor=none;align=left;verticalAlign=middle;spacingLeft=4;spacingRight=4;overflow=hidden;rotatable=0;points=[[0,0.5],[1,0.5]];portConstraint=eastwest;whiteSpace=wrap;" vertex="1" parent="44">
                    <mxGeometry y="50" width="287" height="20" as="geometry"/>
                </mxCell>
                <mxCell id="54" style="edgeStyle=none;html=1;entryX=1;entryY=0.5;entryDx=0;entryDy=0;" edge="1" parent="1" source="48" target="52">
                    <mxGeometry relative="1" as="geometry">
                        <Array as="points">
                            <mxPoint x="240" y="1140"/>
                            <mxPoint x="240" y="1180"/>
                        </Array>
                    </mxGeometry>
                </mxCell>
                <mxCell id="48" value="&lt;span style=&quot;&quot;&gt;&lt;b&gt;&lt;i&gt;Beheerder&lt;/i&gt;&lt;/b&gt;&lt;/span&gt;" style="swimlane;fontStyle=0;align=center;verticalAlign=top;childLayout=stackLayout;horizontal=1;startSize=30;horizontalStack=0;resizeParent=1;resizeParentMax=0;resizeLast=0;collapsible=0;marginBottom=0;html=1;whiteSpace=wrap;" vertex="1" parent="1">
                    <mxGeometry x="275" y="1114.5" width="120" height="50" as="geometry"/>
                </mxCell>
                <mxCell id="56" style="edgeStyle=none;html=1;entryX=1;entryY=0.5;entryDx=0;entryDy=0;exitX=0;exitY=0.5;exitDx=0;exitDy=0;" edge="1" parent="1" source="49" target="48">
                    <mxGeometry relative="1" as="geometry">
                        <Array as="points">
                            <mxPoint x="440" y="1180"/>
                            <mxPoint x="440" y="1140"/>
                        </Array>
                    </mxGeometry>
                </mxCell>
                <mxCell id="57" value="speelt" style="edgeStyle=none;html=1;entryX=1;entryY=0.5;entryDx=0;entryDy=0;exitX=0;exitY=0.5;exitDx=0;exitDy=0;" edge="1" parent="1" source="49" target="42">
                    <mxGeometry x="-0.5862" relative="1" as="geometry">
                        <Array as="points">
                            <mxPoint x="440" y="1180"/>
                            <mxPoint x="440" y="1220"/>
                        </Array>
                        <mxPoint as="offset"/>
                    </mxGeometry>
                </mxCell>
                <mxCell id="49" value="&lt;b style=&quot;font-style: normal;&quot;&gt;Gemeente X&lt;/b&gt;" style="swimlane;fontStyle=2;align=center;verticalAlign=top;childLayout=stackLayout;horizontal=1;startSize=30;horizontalStack=0;resizeParent=1;resizeParentMax=0;resizeLast=0;collapsible=0;marginBottom=0;html=1;whiteSpace=wrap;" vertex="1" parent="1">
                    <mxGeometry x="500" y="1155" width="120" height="50" as="geometry"/>
                </mxCell>
                <mxCell id="52" value="&lt;b&gt;Boom&lt;/b&gt;" style="swimlane;fontStyle=0;align=center;verticalAlign=top;childLayout=stackLayout;horizontal=1;startSize=30;horizontalStack=0;resizeParent=1;resizeParentMax=0;resizeLast=0;collapsible=0;marginBottom=0;html=1;whiteSpace=wrap;" vertex="1" parent="1">
                    <mxGeometry x="70" y="1155" width="120" height="50" as="geometry"/>
                </mxCell>
                <mxCell id="55" value="heeftBetrekkingop" style="edgeStyle=none;html=1;entryX=1;entryY=0.5;entryDx=0;entryDy=0;" edge="1" parent="1" source="42" target="52">
                    <mxGeometry x="0.2" y="-13" relative="1" as="geometry">
                        <Array as="points">
                            <mxPoint x="240" y="1220"/>
                            <mxPoint x="240" y="1180"/>
                        </Array>
                        <mxPoint x="13" y="13" as="offset"/>
                    </mxGeometry>
                </mxCell>
            </root>
        </mxGraphModel>
    </diagram>
</mxfile>